<?xml version="1.0" encoding="UTF-8" standalone="no"?>
<!DOCTYPE svg PUBLIC "-//W3C//DTD SVG 1.1//EN"
 "http://www.w3.org/Graphics/SVG/1.1/DTD/svg11.dtd">
<!-- Generated by graphviz version 2.26.3 (20100126.1600)
 -->
<!-- Title: controllers_diagram Pages: 1 -->
<svg width="540pt" height="423pt"
 viewBox="0.00 0.00 540.00 423.00" xmlns="http://www.w3.org/2000/svg" xmlns:xlink="http://www.w3.org/1999/xlink">
<g id="graph1" class="graph" transform="scale(1 1) rotate(0) translate(4 419)">
<title>controllers_diagram</title>
<polygon fill="none" stroke="none" points="-4,5 -4,-419 537,-419 537,5 -4,5"/>
<!-- _diagram_info -->
<g id="node1" class="node"><title>_diagram_info</title>
<text text-anchor="start" x="289" y="-398.3" font-family="Times Roman,serif" font-size="13.00">Controllers diagram</text>
<text text-anchor="start" x="289" y="-381.3" font-family="Times Roman,serif" font-size="13.00">Date: Nov 21 2016 &#45; 19:35</text>
<text text-anchor="start" x="289" y="-364.3" font-family="Times Roman,serif" font-size="13.00">Migration version: 20161121223202</text>
<text text-anchor="start" x="289" y="-347.3" font-family="Times Roman,serif" font-size="13.00">Generated by RailRoady 1.5.2</text>
<text text-anchor="start" x="289" y="-330.3" font-family="Times Roman,serif" font-size="13.00">http://railroady.prestonlee.com</text>
</g>
<!-- GenresController -->
<g id="node2" class="node"><title>GenresController</title>
<polyline fill="none" stroke="black" points="33,-1.5 144,-1.5 "/>
<path fill="none" stroke="black" d="M144,-1.5C150,-1.5 156,-7.5 156,-13.5"/>
<polyline fill="none" stroke="black" points="156,-13.5 156,-235.5 "/>
<path fill="none" stroke="black" d="M156,-235.5C156,-241.5 150,-247.5 144,-247.5"/>
<polyline fill="none" stroke="black" points="144,-247.5 33,-247.5 "/>
<path fill="none" stroke="black" d="M33,-247.5C27,-247.5 21,-241.5 21,-235.5"/>
<polyline fill="none" stroke="black" points="21,-235.5 21,-13.5 "/>
<path fill="none" stroke="black" d="M21,-13.5C21,-7.5 27,-1.5 33,-1.5"/>
<text text-anchor="middle" x="88.5" y="-230.9" font-family="Times Roman,serif" font-size="14.00">GenresController</text>
<polyline fill="none" stroke="black" points="21,-221.5 156,-221.5 "/>
<text text-anchor="start" x="29" y="-204.9" font-family="Times Roman,serif" font-size="14.00">create</text>
<text text-anchor="start" x="29" y="-186.9" font-family="Times Roman,serif" font-size="14.00">destroy</text>
<text text-anchor="start" x="29" y="-168.9" font-family="Times Roman,serif" font-size="14.00">edit</text>
<text text-anchor="start" x="29" y="-150.9" font-family="Times Roman,serif" font-size="14.00">index</text>
<text text-anchor="start" x="29" y="-132.9" font-family="Times Roman,serif" font-size="14.00">new</text>
<text text-anchor="start" x="29" y="-114.9" font-family="Times Roman,serif" font-size="14.00">show</text>
<text text-anchor="start" x="29" y="-96.9" font-family="Times Roman,serif" font-size="14.00">update</text>
<polyline fill="none" stroke="black" points="21,-87.5 156,-87.5 "/>
<polyline fill="none" stroke="black" points="21,-63.5 156,-63.5 "/>
<text text-anchor="start" x="29" y="-46.9" font-family="Times Roman,serif" font-size="14.00">_layout</text>
<text text-anchor="start" x="29" y="-28.9" font-family="Times Roman,serif" font-size="14.00">genre_params</text>
<text text-anchor="start" x="29" y="-10.9" font-family="Times Roman,serif" font-size="14.00">set_genre</text>
</g>
<!-- ApplicationController -->
<g id="node3" class="node"><title>ApplicationController</title>
<polyline fill="none" stroke="black" points="13,-281.5 150,-281.5 "/>
<path fill="none" stroke="black" d="M150,-281.5C156,-281.5 162,-287.5 162,-293.5"/>
<polyline fill="none" stroke="black" points="162,-293.5 162,-369.5 "/>
<path fill="none" stroke="black" d="M162,-369.5C162,-375.5 156,-381.5 150,-381.5"/>
<polyline fill="none" stroke="black" points="150,-381.5 13,-381.5 "/>
<path fill="none" stroke="black" d="M13,-381.5C7,-381.5 1,-375.5 1,-369.5"/>
<polyline fill="none" stroke="black" points="1,-369.5 1,-293.5 "/>
<path fill="none" stroke="black" d="M1,-293.5C1,-287.5 7,-281.5 13,-281.5"/>
<text text-anchor="middle" x="81.5" y="-364.9" font-family="Times Roman,serif" font-size="14.00">ApplicationController</text>
<polyline fill="none" stroke="black" points="1,-355.5 162,-355.5 "/>
<polyline fill="none" stroke="black" points="1,-331.5 162,-331.5 "/>
<polyline fill="none" stroke="black" points="1,-307.5 162,-307.5 "/>
<text text-anchor="start" x="9" y="-290.9" font-family="Times Roman,serif" font-size="14.00">_layout</text>
</g>
<!-- SongsController -->
<g id="node4" class="node"><title>SongsController</title>
<polyline fill="none" stroke="black" points="213,-41.5 316,-41.5 "/>
<path fill="none" stroke="black" d="M316,-41.5C322,-41.5 328,-47.5 328,-53.5"/>
<polyline fill="none" stroke="black" points="328,-53.5 328,-275.5 "/>
<path fill="none" stroke="black" d="M328,-275.5C328,-281.5 322,-287.5 316,-287.5"/>
<polyline fill="none" stroke="black" points="316,-287.5 213,-287.5 "/>
<path fill="none" stroke="black" d="M213,-287.5C207,-287.5 201,-281.5 201,-275.5"/>
<polyline fill="none" stroke="black" points="201,-275.5 201,-53.5 "/>
<path fill="none" stroke="black" d="M201,-53.5C201,-47.5 207,-41.5 213,-41.5"/>
<text text-anchor="middle" x="264.5" y="-270.9" font-family="Times Roman,serif" font-size="14.00">SongsController</text>
<polyline fill="none" stroke="black" points="201,-261.5 328,-261.5 "/>
<text text-anchor="start" x="209" y="-244.9" font-family="Times Roman,serif" font-size="14.00">create</text>
<text text-anchor="start" x="209" y="-226.9" font-family="Times Roman,serif" font-size="14.00">destroy</text>
<text text-anchor="start" x="209" y="-208.9" font-family="Times Roman,serif" font-size="14.00">edit</text>
<text text-anchor="start" x="209" y="-190.9" font-family="Times Roman,serif" font-size="14.00">index</text>
<text text-anchor="start" x="209" y="-172.9" font-family="Times Roman,serif" font-size="14.00">new</text>
<text text-anchor="start" x="209" y="-154.9" font-family="Times Roman,serif" font-size="14.00">show</text>
<text text-anchor="start" x="209" y="-136.9" font-family="Times Roman,serif" font-size="14.00">update</text>
<polyline fill="none" stroke="black" points="201,-127.5 328,-127.5 "/>
<polyline fill="none" stroke="black" points="201,-103.5 328,-103.5 "/>
<text text-anchor="start" x="209" y="-86.9" font-family="Times Roman,serif" font-size="14.00">_layout</text>
<text text-anchor="start" x="209" y="-68.9" font-family="Times Roman,serif" font-size="14.00">set_song</text>
<text text-anchor="start" x="209" y="-50.9" font-family="Times Roman,serif" font-size="14.00">song_params</text>
</g>
</g>
</svg>
