<?xml version="1.0" encoding="UTF-8" standalone="no"?>
<!DOCTYPE svg PUBLIC "-//W3C//DTD SVG 1.1//EN"
 "http://www.w3.org/Graphics/SVG/1.1/DTD/svg11.dtd">
<!-- Generated by graphviz version 2.26.3 (20100126.1600)
 -->
<!-- Title: models_diagram Pages: 1 -->
<svg width="798pt" height="800pt"
 viewBox="0.00 0.00 798.00 800.00" xmlns="http://www.w3.org/2000/svg" xmlns:xlink="http://www.w3.org/1999/xlink">
<g id="graph1" class="graph" transform="scale(1 1) rotate(0) translate(4 796)">
<title>models_diagram</title>
<polygon fill="none" stroke="none" points="-4,5 -4,-796 795,-796 795,5 -4,5"/>
<!-- _diagram_info -->
<g id="node1" class="node"><title>_diagram_info</title>
<text text-anchor="start" x="8" y="-768.8" font-family="Times Roman,serif" font-size="13.00">Models diagram</text>
<text text-anchor="start" x="8" y="-751.8" font-family="Times Roman,serif" font-size="13.00">Date: Nov 21 2016 &#45; 19:35</text>
<text text-anchor="start" x="8" y="-734.8" font-family="Times Roman,serif" font-size="13.00">Migration version: 20161121223202</text>
<text text-anchor="start" x="8" y="-717.8" font-family="Times Roman,serif" font-size="13.00">Generated by RailRoady 1.5.2</text>
<text text-anchor="start" x="8" y="-700.8" font-family="Times Roman,serif" font-size="13.00">http://railroady.prestonlee.com</text>
</g>
<!-- Song -->
<g id="node2" class="node"><title>Song</title>
<polyline fill="none" stroke="black" points="279.5,-505 564.5,-505 "/>
<path fill="none" stroke="black" d="M564.5,-505C570.5,-505 576.5,-511 576.5,-517"/>
<polyline fill="none" stroke="black" points="576.5,-517 576.5,-635 "/>
<path fill="none" stroke="black" d="M576.5,-635C576.5,-641 570.5,-647 564.5,-647"/>
<polyline fill="none" stroke="black" points="564.5,-647 279.5,-647 "/>
<path fill="none" stroke="black" d="M279.5,-647C273.5,-647 267.5,-641 267.5,-635"/>
<polyline fill="none" stroke="black" points="267.5,-635 267.5,-517 "/>
<path fill="none" stroke="black" d="M267.5,-517C267.5,-511 273.5,-505 279.5,-505"/>
<text text-anchor="middle" x="422" y="-630.4" font-family="Times Roman,serif" font-size="14.00">Song</text>
<polyline fill="none" stroke="black" points="267.5,-621 576.5,-621 "/>
<text text-anchor="start" x="275.5" y="-604.4" font-family="Times Roman,serif" font-size="14.00">id :integer</text>
<text text-anchor="start" x="275.5" y="-586.4" font-family="Times Roman,serif" font-size="14.00">name :character varying</text>
<text text-anchor="start" x="275.5" y="-568.4" font-family="Times Roman,serif" font-size="14.00">duration :integer</text>
<text text-anchor="start" x="275.5" y="-550.4" font-family="Times Roman,serif" font-size="14.00">genre_id :integer</text>
<text text-anchor="start" x="275.5" y="-532.4" font-family="Times Roman,serif" font-size="14.00">created_at :timestamp without time zone</text>
<text text-anchor="start" x="275.5" y="-514.4" font-family="Times Roman,serif" font-size="14.00">updated_at :timestamp without time zone</text>
</g>
<!-- Playlist -->
<g id="node5" class="node"><title>Playlist</title>
<polyline fill="none" stroke="black" points="279.5,-1 564.5,-1 "/>
<path fill="none" stroke="black" d="M564.5,-1C570.5,-1 576.5,-7 576.5,-13"/>
<polyline fill="none" stroke="black" points="576.5,-13 576.5,-131 "/>
<path fill="none" stroke="black" d="M576.5,-131C576.5,-137 570.5,-143 564.5,-143"/>
<polyline fill="none" stroke="black" points="564.5,-143 279.5,-143 "/>
<path fill="none" stroke="black" d="M279.5,-143C273.5,-143 267.5,-137 267.5,-131"/>
<polyline fill="none" stroke="black" points="267.5,-131 267.5,-13 "/>
<path fill="none" stroke="black" d="M267.5,-13C267.5,-7 273.5,-1 279.5,-1"/>
<text text-anchor="middle" x="422" y="-126.4" font-family="Times Roman,serif" font-size="14.00">Playlist</text>
<polyline fill="none" stroke="black" points="267.5,-117 576.5,-117 "/>
<text text-anchor="start" x="275.5" y="-100.4" font-family="Times Roman,serif" font-size="14.00">id :integer</text>
<text text-anchor="start" x="275.5" y="-82.4" font-family="Times Roman,serif" font-size="14.00">user_id :integer</text>
<text text-anchor="start" x="275.5" y="-64.4" font-family="Times Roman,serif" font-size="14.00">song_id :integer</text>
<text text-anchor="start" x="275.5" y="-46.4" font-family="Times Roman,serif" font-size="14.00">position :integer</text>
<text text-anchor="start" x="275.5" y="-28.4" font-family="Times Roman,serif" font-size="14.00">created_at :timestamp without time zone</text>
<text text-anchor="start" x="275.5" y="-10.4" font-family="Times Roman,serif" font-size="14.00">updated_at :timestamp without time zone</text>
</g>
<!-- Song&#45;&gt;Playlist -->
<g id="edge2" class="edge"><title>Song&#45;&gt;Playlist</title>
<path fill="none" stroke="#bce9b0" d="M343.54,-497.972C337.285,-488.453 331.891,-478.397 328,-468 283.136,-348.12 283.136,-299.88 328,-180 331.664,-170.209 336.662,-160.719 342.456,-151.697"/>
<ellipse fill="none" stroke="#bce9b0" cx="345.971" cy="-501.508" rx="4.00002" ry="4.00002"/>
<polygon fill="#bce9b0" stroke="#bce9b0" points="342.613,-151.465 351.958,-145.726 345.425,-147.33 348.237,-143.196 348.237,-143.196 348.237,-143.196 345.425,-147.33 344.516,-140.665 342.613,-151.465 342.613,-151.465"/>
</g>
<!-- User -->
<g id="node6" class="node"><title>User</title>
<polyline fill="none" stroke="black" points="349,-181 723,-181 "/>
<path fill="none" stroke="black" d="M723,-181C729,-181 735,-187 735,-193"/>
<polyline fill="none" stroke="black" points="735,-193 735,-455 "/>
<path fill="none" stroke="black" d="M735,-455C735,-461 729,-467 723,-467"/>
<polyline fill="none" stroke="black" points="723,-467 349,-467 "/>
<path fill="none" stroke="black" d="M349,-467C343,-467 337,-461 337,-455"/>
<polyline fill="none" stroke="black" points="337,-455 337,-193 "/>
<path fill="none" stroke="black" d="M337,-193C337,-187 343,-181 349,-181"/>
<text text-anchor="middle" x="536" y="-450.4" font-family="Times Roman,serif" font-size="14.00">User</text>
<polyline fill="none" stroke="black" points="337,-441 735,-441 "/>
<text text-anchor="start" x="345" y="-424.4" font-family="Times Roman,serif" font-size="14.00">id :integer</text>
<text text-anchor="start" x="345" y="-406.4" font-family="Times Roman,serif" font-size="14.00">email :character varying</text>
<text text-anchor="start" x="345" y="-388.4" font-family="Times Roman,serif" font-size="14.00">encrypted_password :character varying</text>
<text text-anchor="start" x="345" y="-370.4" font-family="Times Roman,serif" font-size="14.00">reset_password_token :character varying</text>
<text text-anchor="start" x="345" y="-352.4" font-family="Times Roman,serif" font-size="14.00">reset_password_sent_at :timestamp without time zone</text>
<text text-anchor="start" x="345" y="-334.4" font-family="Times Roman,serif" font-size="14.00">remember_created_at :timestamp without time zone</text>
<text text-anchor="start" x="345" y="-316.4" font-family="Times Roman,serif" font-size="14.00">sign_in_count :integer</text>
<text text-anchor="start" x="345" y="-298.4" font-family="Times Roman,serif" font-size="14.00">current_sign_in_at :timestamp without time zone</text>
<text text-anchor="start" x="345" y="-280.4" font-family="Times Roman,serif" font-size="14.00">last_sign_in_at :timestamp without time zone</text>
<text text-anchor="start" x="345" y="-262.4" font-family="Times Roman,serif" font-size="14.00">current_sign_in_ip :inet</text>
<text text-anchor="start" x="345" y="-244.4" font-family="Times Roman,serif" font-size="14.00">last_sign_in_ip :inet</text>
<text text-anchor="start" x="345" y="-226.4" font-family="Times Roman,serif" font-size="14.00">created_at :timestamp without time zone</text>
<text text-anchor="start" x="345" y="-208.4" font-family="Times Roman,serif" font-size="14.00">updated_at :timestamp without time zone</text>
<text text-anchor="start" x="345" y="-190.4" font-family="Times Roman,serif" font-size="14.00">name :character varying</text>
</g>
<!-- Song&#45;&gt;User -->
<g id="edge4" class="edge"><title>Song&#45;&gt;User</title>
<path fill="none" stroke="#3f6cb7" d="M458.456,-495.414C461.234,-489.272 464.088,-482.964 466.985,-476.56"/>
<polygon fill="#3f6cb7" stroke="#3f6cb7" points="458.332,-495.686 450.111,-502.943 456.272,-500.242 454.211,-504.797 454.211,-504.797 454.211,-504.797 456.272,-500.242 458.311,-506.652 458.332,-495.686 458.332,-495.686"/>
<polygon fill="#3f6cb7" stroke="#3f6cb7" points="467.135,-476.228 475.357,-468.971 469.196,-471.672 471.257,-467.116 471.257,-467.116 471.257,-467.116 469.196,-471.672 467.157,-465.262 467.135,-476.228 467.135,-476.228"/>
</g>
<!-- Genre -->
<g id="node3" class="node"><title>Genre</title>
<polyline fill="none" stroke="black" points="279.5,-685 564.5,-685 "/>
<path fill="none" stroke="black" d="M564.5,-685C570.5,-685 576.5,-691 576.5,-697"/>
<polyline fill="none" stroke="black" points="576.5,-697 576.5,-779 "/>
<path fill="none" stroke="black" d="M576.5,-779C576.5,-785 570.5,-791 564.5,-791"/>
<polyline fill="none" stroke="black" points="564.5,-791 279.5,-791 "/>
<path fill="none" stroke="black" d="M279.5,-791C273.5,-791 267.5,-785 267.5,-779"/>
<polyline fill="none" stroke="black" points="267.5,-779 267.5,-697 "/>
<path fill="none" stroke="black" d="M267.5,-697C267.5,-691 273.5,-685 279.5,-685"/>
<text text-anchor="middle" x="422" y="-774.4" font-family="Times Roman,serif" font-size="14.00">Genre</text>
<polyline fill="none" stroke="black" points="267.5,-765 576.5,-765 "/>
<text text-anchor="start" x="275.5" y="-748.4" font-family="Times Roman,serif" font-size="14.00">id :integer</text>
<text text-anchor="start" x="275.5" y="-730.4" font-family="Times Roman,serif" font-size="14.00">name :character varying</text>
<text text-anchor="start" x="275.5" y="-712.4" font-family="Times Roman,serif" font-size="14.00">created_at :timestamp without time zone</text>
<text text-anchor="start" x="275.5" y="-694.4" font-family="Times Roman,serif" font-size="14.00">updated_at :timestamp without time zone</text>
</g>
<!-- Genre&#45;&gt;Song -->
<g id="edge6" class="edge"><title>Genre&#45;&gt;Song</title>
<path fill="none" stroke="#2a1517" d="M422,-676.9C422,-670.521 422,-663.967 422,-657.409"/>
<ellipse fill="none" stroke="#2a1517" cx="422" cy="-680.955" rx="4" ry="4"/>
<polygon fill="#2a1517" stroke="#2a1517" points="422,-657.126 426.5,-647.125 422,-652.126 422,-647.126 422,-647.126 422,-647.126 422,-652.126 417.5,-647.126 422,-657.126 422,-657.126"/>
</g>
<!-- ApplicationRecord -->
<g id="node4" class="node"><title>ApplicationRecord</title>
<ellipse fill="none" stroke="black" cx="692" cy="-738" rx="97.7889" ry="18.3848"/>
<text text-anchor="middle" x="692" y="-734.4" font-family="Times Roman,serif" font-size="14.00">ApplicationRecord</text>
</g>
<!-- User&#45;&gt;Playlist -->
<g id="edge8" class="edge"><title>User&#45;&gt;Playlist</title>
<path fill="none" stroke="#2ae594" d="M467.752,-173.135C464.537,-166.029 461.372,-159.032 458.299,-152.24"/>
<ellipse fill="none" stroke="#2ae594" cx="469.525" cy="-177.055" rx="4.00002" ry="4.00002"/>
<polygon fill="#2ae594" stroke="#2ae594" points="458.293,-152.226 458.271,-141.261 456.232,-147.671 454.171,-143.115 454.171,-143.115 454.171,-143.115 456.232,-147.671 450.071,-144.97 458.293,-152.226 458.293,-152.226"/>
</g>
</g>
</svg>
