<?xml version="1.0" encoding="UTF-8" standalone="no"?>
<!DOCTYPE svg PUBLIC "-//W3C//DTD SVG 1.1//EN"
 "http://www.w3.org/Graphics/SVG/1.1/DTD/svg11.dtd">
<!-- Generated by graphviz version 2.26.3 (20100126.1600)
 -->
<!-- Title: models_diagram Pages: 1 -->
<svg width="572pt" height="324pt"
 viewBox="0.00 0.00 572.00 324.00" xmlns="http://www.w3.org/2000/svg" xmlns:xlink="http://www.w3.org/1999/xlink">
<g id="graph1" class="graph" transform="scale(1 1) rotate(0) translate(4 320)">
<title>models_diagram</title>
<polygon fill="none" stroke="none" points="-4,5 -4,-320 569,-320 569,5 -4,5"/>
<!-- _diagram_info -->
<g id="node1" class="node"><title>_diagram_info</title>
<text text-anchor="start" x="8" y="-299.8" font-family="Times Roman,serif" font-size="13.00">Models diagram</text>
<text text-anchor="start" x="8" y="-282.8" font-family="Times Roman,serif" font-size="13.00">Date: Nov 21 2016 &#45; 19:35</text>
<text text-anchor="start" x="8" y="-265.8" font-family="Times Roman,serif" font-size="13.00">Migration version: 20161121223202</text>
<text text-anchor="start" x="8" y="-248.8" font-family="Times Roman,serif" font-size="13.00">Generated by RailRoady 1.5.2</text>
<text text-anchor="start" x="8" y="-231.8" font-family="Times Roman,serif" font-size="13.00">http://railroady.prestonlee.com</text>
</g>
<!-- Song -->
<g id="node2" class="node"><title>Song</title>
<ellipse fill="none" stroke="black" cx="309" cy="-167" rx="36.0624" ry="18.3848"/>
<text text-anchor="middle" x="309" y="-163.4" font-family="Times Roman,serif" font-size="14.00">Song</text>
</g>
<!-- Playlist -->
<g id="node5" class="node"><title>Playlist</title>
<ellipse fill="none" stroke="black" cx="309" cy="-19" rx="46.1672" ry="18.3848"/>
<text text-anchor="middle" x="309" y="-15.4" font-family="Times Roman,serif" font-size="14.00">Playlist</text>
</g>
<!-- Song&#45;&gt;Playlist -->
<g id="edge2" class="edge"><title>Song&#45;&gt;Playlist</title>
<path fill="none" stroke="#f8aae9" d="M302.054,-140.678C299.995,-131.654 298.019,-121.448 297,-112 295.189,-95.2084 295.189,-90.7916 297,-74 297.946,-65.2267 299.717,-55.8004 301.614,-47.273"/>
<ellipse fill="none" stroke="#f8aae9" cx="303.013" cy="-144.688" rx="4.00001" ry="4.00001"/>
<polygon fill="#f8aae9" stroke="#f8aae9" points="301.642,-47.1534 308.323,-38.4571 302.793,-42.2876 303.943,-37.4217 303.943,-37.4217 303.943,-37.4217 302.793,-42.2876 299.564,-36.3863 301.642,-47.1534 301.642,-47.1534"/>
</g>
<!-- User -->
<g id="node6" class="node"><title>User</title>
<ellipse fill="none" stroke="black" cx="340" cy="-93" rx="33.9411" ry="18.3848"/>
<text text-anchor="middle" x="340" y="-89.4" font-family="Times Roman,serif" font-size="14.00">User</text>
</g>
<!-- Song&#45;&gt;User -->
<g id="edge4" class="edge"><title>Song&#45;&gt;User</title>
<path fill="none" stroke="#3206f4" d="M320.604,-139.299C323.198,-133.107 325.948,-126.543 328.536,-120.365"/>
<polygon fill="#3206f4" stroke="#3206f4" points="320.527,-139.484 312.512,-146.969 318.595,-144.096 316.663,-148.708 316.663,-148.708 316.663,-148.708 318.595,-144.096 320.813,-150.447 320.527,-139.484 320.527,-139.484"/>
<polygon fill="#3206f4" stroke="#3206f4" points="328.561,-120.305 336.576,-112.82 330.493,-115.693 332.425,-111.082 332.425,-111.082 332.425,-111.082 330.493,-115.693 328.275,-109.343 328.561,-120.305 328.561,-120.305"/>
</g>
<!-- Genre -->
<g id="node3" class="node"><title>Genre</title>
<ellipse fill="none" stroke="black" cx="309" cy="-269" rx="41.2167" ry="18.3848"/>
<text text-anchor="middle" x="309" y="-265.4" font-family="Times Roman,serif" font-size="14.00">Genre</text>
</g>
<!-- Genre&#45;&gt;Song -->
<g id="edge6" class="edge"><title>Genre&#45;&gt;Song</title>
<path fill="none" stroke="#33ef76" d="M309,-242.015C309,-227.835 309,-210.445 309,-195.98"/>
<ellipse fill="none" stroke="#33ef76" cx="309" cy="-246.292" rx="4" ry="4"/>
<polygon fill="#33ef76" stroke="#33ef76" points="309,-195.59 313.5,-185.59 309,-190.59 309,-185.59 309,-185.59 309,-185.59 309,-190.59 304.5,-185.59 309,-195.59 309,-195.59"/>
</g>
<!-- ApplicationRecord -->
<g id="node4" class="node"><title>ApplicationRecord</title>
<ellipse fill="none" stroke="black" cx="466" cy="-269" rx="97.7889" ry="18.3848"/>
<text text-anchor="middle" x="466" y="-265.4" font-family="Times Roman,serif" font-size="14.00">ApplicationRecord</text>
</g>
<!-- User&#45;&gt;Playlist -->
<g id="edge8" class="edge"><title>User&#45;&gt;Playlist</title>
<path fill="none" stroke="#1bf562" d="M329.165,-67.1355C326.399,-60.5337 323.415,-53.4104 320.612,-46.7198"/>
<ellipse fill="none" stroke="#1bf562" cx="330.792" cy="-71.0185" rx="4.00002" ry="4.00002"/>
<polygon fill="#1bf562" stroke="#1bf562" points="320.546,-46.5616 320.833,-35.5994 318.614,-41.9499 316.682,-37.3382 316.682,-37.3382 316.682,-37.3382 318.614,-41.9499 312.532,-39.0769 320.546,-46.5616 320.546,-46.5616"/>
</g>
</g>
</svg>
